<svg width="72" height="72" viewBox="0 0 72 72" fill="none" xmlns="http://www.w3.org/2000/svg">
<g clip-path="url(#clip0_547_1937)">
<path d="M27.1801 35.7L51.3901 11.52C52.1792 10.7053 53.1226 10.0558 54.1653 9.60932C55.2079 9.16282 56.329 8.92822 57.4632 8.91922C58.5974 8.91021 59.722 9.12696 60.7717 9.55684C61.8213 9.98673 62.7749 10.6212 63.5769 11.4232C64.3789 12.2252 65.0133 13.1788 65.4432 14.2284C65.8731 15.278 66.0899 16.4027 66.0808 17.5369C66.0718 18.6711 65.8372 19.7921 65.3907 20.8348C64.9442 21.8774 64.2947 22.8208 63.4801 23.61L39.3001 47.85M21.2101 44.82C16.2301 44.82 12.2101 48.87 12.2101 53.88C12.2101 57.87 4.71007 58.44 6.21007 59.94C9.45007 63.24 13.6801 66 18.2101 66C24.8101 66 30.2101 60.6 30.2101 53.88C30.214 52.6942 29.9843 51.5192 29.5342 50.4221C29.084 49.325 28.4222 48.3273 27.5865 47.486C26.7507 46.6447 25.7575 45.9763 24.6634 45.5188C23.5694 45.0614 22.3959 44.8239 21.2101 44.82Z" stroke="black" stroke-width="3" stroke-linecap="round" stroke-linejoin="round"/>
</g>
<defs>
<clipPath id="clip0_547_1937">
<rect width="72" height="72" fill="white"/>
</clipPath>
</defs>
</svg>
